<svg width="32" height="32" viewBox="0 0 32 32" fill="none" xmlns="http://www.w3.org/2000/svg">
<circle cx="16" cy="16" r="16" fill="#2293DA"/>
<path d="M19.7001 15.2439C17.4001 9.34391 8.4001 11.9439 7.1001 14.0439C7.7401 9.24394 11.9001 8.31059 13.9001 8.44391C19.3001 3.44385 22.9001 12.8439 19.7001 15.2439Z" fill="white"/>
<path d="M14.9025 19.9557C21.162 20.9139 23.4104 11.8197 22.2417 9.64382C26.0786 12.5981 24.8069 16.6674 23.6915 18.3328C25.3216 25.5094 15.381 23.927 14.9025 19.9557Z" fill="white"/>
<path d="M13.2419 13.4874C9.28235 18.4292 16.034 24.9235 18.5027 24.9993C14.0258 26.845 11.1375 23.709 10.2529 21.9103C3.22275 19.7338 9.56342 11.9161 13.2419 13.4874Z" fill="white"/>
</svg>
